# xmcd
#
# Track frame offsets:
#	150
#	17765
#	34713
#	52557
#	71757
#	88287
#	103479
#	121671
#	137997
#	155609
#	173135
#	188474
#	206249
#
# Disc length: 3033 seconds
#
# Revision: 0
# Processed by: cddbd v1.5.2PL0 Copyright (c) Steve Scherf et al.
# Submitted via: dBpowerAMP V4.0
#
DISCID=b20bd70d
DTITLE=Tracey Killen - Back There
DYEAR=1900
DGENRE=Country
TTITLE0=All Kinds Of Beautiful
TTITLE1=Good Friends and Good Times
TTITLE2=Back There
TTITLE3=Never Seen The Rain
TTITLE4=Granville
TTITLE5=A Little Time
TTITLE6=My Dad
TTITLE7=Take You Back
TTITLE8=One More Gone
TTITLE9=Letting Go
TTITLE10=Way Into My Heart
TTITLE11=Almost Feeling Good
TTITLE12=Working Man
EXTD=
EXTT0=
EXTT1=
EXTT2=
EXTT3=
EXTT4=
EXTT5=
EXTT6=
EXTT7=
EXTT8=
EXTT9=
EXTT10=
EXTT11=
EXTT12=
PLAYORDER=
